<svg xmlns="http://www.w3.org/2000/svg" version="1.1" xmlns:xlink="http://www.w3.org/1999/xlink" xmlns:svgjs="http://svgjs.com/svgjs" height="82.7504620626973" width="288.70001220703125"><g transform="translate(80.34999990463257,-194.42477202040916)"><path d="M25.81 214.11C25.73 213.32 25.65 212.53 25.52 211.79C21.59 211.29 17.25 211.05 12.62 211.05C9.14 211.05 5.63 211.38 2.61 211.79C1.99 215.76 1.65 220.48 1.65 225.52C1.65 230.49 1.99 235.28 2.61 239.26C3.27 239.34 3.97 239.42 4.67 239.50C4.67 239.05 4.63 238.59 4.63 238.10C4.63 231.93 5.54 223.37 7.24 216.42C8.93 216.01 10.75 215.64 12.62 215.35C12.95 218.45 13.11 221.88 13.11 225.52C13.11 230.90 12.74 235.91 12.04 240L16.09 240C15.39 235.91 15.01 230.90 15.01 225.52C15.01 221.72 15.22 218.12 15.55 214.89C18.32 214.48 21.01 214.23 23.45 214.15C23.37 221.92 21.55 232.84 19.52 239.83C21.63 239.71 23.66 239.50 25.52 239.26C26.14 235.45 26.47 230.61 26.47 225.52C26.47 221.39 26.22 217.50 25.81 214.11ZM53.65 211.79C50.17 211.38 46.33 211.05 42.19 211.05C38.14 211.05 34.17 211.34 30.73 211.79C30.11 215.76 29.78 220.48 29.78 225.52C29.78 230.49 30.11 235.28 30.73 239.26C34.21 239.71 38.05 240 42.19 240C46.24 240 50.21 239.71 53.65 239.26C54.27 235.45 54.60 230.61 54.60 225.52C54.60 220.56 54.39 216.09 53.65 211.79ZM41.07 235.78C38.18 235.28 35.41 234.66 32.88 234.00C33.17 228.58 34.04 221.80 35.37 216.42C40.70 215.22 46.74 214.35 51.58 214.15C51.50 220.77 50.21 229.95 48.52 236.73C46.16 236.53 43.64 236.19 41.07 235.78ZM81.77 211.79C78.30 211.38 74.45 211.05 70.32 211.05C66.26 211.05 62.29 211.34 58.86 211.79C58.16 216.26 57.91 221.63 57.91 227.38C61.01 226.85 64.48 226.60 68.17 226.52C64.73 230.16 61.34 233.26 58.40 235.49C58.53 236.82 58.69 238.06 58.86 239.26C59.48 239.34 60.80 239.34 61.22 239.55C63.37 235.74 66.68 231.15 70.73 226.47C73.50 226.47 76.15 226.64 78.63 226.85C77.89 231.73 76.89 236.15 75.78 239.83C77.89 239.71 79.91 239.50 81.77 239.26C82.35 235.33 82.73 230.61 82.73 225.52C82.73 220.56 82.52 216.09 81.77 211.79ZM63.49 216.42C68.83 215.22 74.87 214.35 79.71 214.15C79.67 217.17 79.42 220.56 79.00 224.16C76.27 224.41 73.38 224.57 70.32 224.57C67.42 224.57 64.61 224.45 62.00 224.20C62.42 221.47 62.91 218.86 63.49 216.42ZM123.96 211.79C120.49 211.38 116.64 211.05 112.51 211.05C108.45 211.05 104.48 211.34 101.05 211.79C100.43 215.76 100.10 220.48 100.10 225.52C100.10 230.49 100.43 235.28 101.05 239.26C101.71 239.34 102.41 239.42 103.12 239.50C103.12 239.05 103.08 238.59 103.08 238.10C103.08 234.75 103.32 230.94 103.82 226.89C106.55 226.64 109.45 226.47 112.51 226.47C115.40 226.47 118.22 226.60 120.82 226.85C120.08 231.73 119.04 236.11 117.97 239.83C120.08 239.71 122.10 239.50 123.96 239.26C124.59 235.45 124.92 230.61 124.92 225.52C124.92 220.56 124.71 216.09 123.96 211.79ZM104.19 224.20C104.61 221.47 105.10 218.86 105.68 216.42C111.02 215.22 117.06 214.35 121.90 214.15C121.86 217.17 121.61 220.56 121.19 224.16C118.46 224.41 115.57 224.57 112.51 224.57C109.61 224.57 106.80 224.45 104.19 224.20ZM153.04 223.66C149.57 224.28 145.68 224.53 141.59 224.57C141.63 219.53 142.00 214.81 142.66 211.09C142.12 211.05 141.54 211.05 140.97 211.05C136.95 211.05 132.73 211.29 129.18 211.79C128.56 215.76 128.23 220.48 128.23 225.52C128.23 230.49 128.56 235.28 129.18 239.26C132.65 239.71 136.50 240 140.63 240C144.69 240 148.66 239.71 152.09 239.26C152.92 233.88 153.04 228.75 153.04 223.66ZM139.19 215.35C139.48 218.16 139.64 221.30 139.68 224.57C137.12 224.53 134.64 224.41 132.32 224.20C132.73 221.47 133.23 218.86 133.81 216.42C135.51 216.01 137.33 215.64 139.19 215.35ZM146.96 236.73C141.96 236.32 136.04 235.24 131.33 234.00C131.45 231.77 131.66 229.37 131.95 226.89C134.68 226.64 137.57 226.47 140.63 226.47C143.53 226.47 146.34 226.60 148.95 226.85C148.41 230.40 147.71 233.75 146.96 236.73ZM177.86 214.15C178.69 214.11 179.47 214.11 180.22 214.11C180.14 213.32 180.05 212.53 179.93 211.79C176.45 211.38 172.61 211.05 168.47 211.05C164.42 211.05 160.45 211.34 157.01 211.79C156.72 213.69 156.52 215.72 156.35 217.91C159.45 216.92 163.09 215.97 167.02 215.35C167.35 218.45 167.52 221.88 167.52 225.52C167.52 230.90 167.15 235.91 166.44 240L170.50 240C169.80 235.91 169.42 230.90 169.42 225.52C169.42 221.72 169.63 218.12 169.96 214.89C172.73 214.48 175.42 214.23 177.86 214.15ZM207.39 211.79C203.92 211.38 200.07 211.05 195.94 211.05C191.88 211.05 187.91 211.34 184.48 211.79C183.86 215.76 183.53 220.48 183.53 225.52C183.53 230.49 183.86 235.28 184.48 239.26C187.95 239.71 191.80 240 195.94 240C199.99 240 203.96 239.71 207.39 239.26C208.01 235.45 208.35 230.61 208.35 225.52C208.35 220.56 208.14 216.09 207.39 211.79ZM194.82 235.78C191.92 235.28 189.15 234.66 186.63 234.00C186.92 228.58 187.79 221.80 189.11 216.42C194.45 215.22 200.49 214.35 205.33 214.15C205.24 220.77 203.96 229.95 202.27 236.73C199.91 236.53 197.38 236.19 194.82 235.78Z" fill="#002F2F" style="fill: rgb(0, 47, 47);"></path></g></svg>